<?xml version="1.0" standalone="no"?><!DOCTYPE svg PUBLIC "-//W3C//DTD SVG 1.1//EN" "http://www.w3.org/Graphics/SVG/1.1/DTD/svg11.dtd"><svg t="1728489457973" class="icon" viewBox="0 0 1066 1024" version="1.1" xmlns="http://www.w3.org/2000/svg" p-id="4364" xmlns:xlink="http://www.w3.org/1999/xlink" width="266.5" height="256"><path d="M983.424 61.184L756.267 306.688a7.253 7.253 0 0 0-1.835 6.4 44.373 44.373 0 0 1-75.52 39.808L497.877 533.931l17.92 239.104 203.264 203.264L983.467 61.184z" fill="#3388FF" p-id="4365"></path><path d="M980.693 67.328L755.968 310.187a7.253 7.253 0 0 0-1.792 6.4 43.947 43.947 0 0 1-74.71 39.338l-177.92 177.92a3.541 3.541 0 0 0-1.023 2.774l17.578 234.88 453.12-683.563 9.472-20.608z" fill="#005DE0" p-id="4366"></path><path d="M974.25 51.968L728.748 279.125a7.253 7.253 0 0 1-6.4 1.792 44.373 44.373 0 0 0-39.851 75.52L501.504 537.472 262.4 519.552 59.093 316.288l915.158-264.32z" fill="#46EBD5" p-id="4367"></path><path d="M968.064 54.699L725.205 279.424a7.253 7.253 0 0 1-6.4 1.75 43.947 43.947 0 0 0-39.338 74.751l-177.92 177.92a3.541 3.541 0 0 1-2.774 1.024l-234.88-17.578L947.456 64.17l20.608-9.472z" fill="#00D0B6" p-id="4368"></path></svg>